<?xml version="1.0" standalone="no"?>
<!DOCTYPE svg PUBLIC "-//W3C//DTD SVG 20010904//EN"
 "http://www.w3.org/TR/2001/REC-SVG-20010904/DTD/svg10.dtd">
<svg version="1.0" xmlns="http://www.w3.org/2000/svg"
 width="512.000000pt" height="512.000000pt" viewBox="0 0 512.000000 512.000000"
 preserveAspectRatio="xMidYMid meet">
<metadata>
Created by potrace 1.14, written by Peter Selinger 2001-2017
</metadata>
<g transform="translate(0.000000,512.000000) scale(0.100000,-0.100000)"
fill="#000000" stroke="none">
<path d="M397 5104 c-99 -24 -167 -62 -243 -138 -77 -78 -114 -144 -139 -248
-22 -95 -22 -4221 0 -4316 25 -104 62 -170 139 -248 78 -77 144 -114 248 -139
95 -22 4221 -22 4316 0 104 25 170 62 248 139 77 78 114 144 139 248 22 95 22
4221 0 4316 -25 104 -62 170 -139 248 -78 77 -144 114 -248 139 -92 22 -4231
21 -4321 -1z m763 -2404 l0 -1240 605 0 605 0 0 -140 0 -140 -760 0 -760 0 0
1380 0 1380 155 0 155 0 0 -1240z m1912 3 l3 -1238 603 -3 602 -2 0 -140 0
-140 -760 0 -760 0 0 1380 0 1380 155 0 155 0 2 -1237z"/>
</g>
</svg>
